<svg xmlns="http://www.w3.org/2000/svg" width="512" height="512" viewBox="0 0 512 512" role="img" aria-label="DAD Clock 11:11">
  <defs>
    <linearGradient id="frame" x1="0" y1="0" x2="1" y2="1">
      <stop offset="0" stop-color="#303332"/>
      <stop offset="0.45" stop-color="#111413"/>
      <stop offset="1" stop-color="#030504"/>
    </linearGradient>
    <radialGradient id="face" cx="40%" cy="25%" r="80%">
      <stop offset="0" stop-color="#161b19"/>
      <stop offset="0.55" stop-color="#050807"/>
      <stop offset="1" stop-color="#000"/>
    </radialGradient>
    <filter id="glow" x="-50%" y="-50%" width="200%" height="200%">
      <feGaussianBlur stdDeviation="7" result="b"/>
      <feMerge><feMergeNode in="b"/><feMergeNode in="SourceGraphic"/></feMerge>
    </filter>
  </defs>
  <rect x="10" y="10" width="492" height="492" rx="92" fill="url(#frame)" stroke="#555" stroke-width="3"/>
  <circle cx="256" cy="256" r="207" fill="url(#face)" stroke="#0f391c" stroke-width="5"/>
  <circle cx="256" cy="256" r="198" fill="none" stroke="#79ff32" stroke-width="7" filter="url(#glow)"/>
  <g fill="#8cff35" filter="url(#glow)">
    <rect x="128" y="182" width="15" height="70" rx="7"/>
    <rect x="128" y="260" width="15" height="70" rx="7"/>
    <rect x="205" y="182" width="15" height="70" rx="7"/>
    <rect x="205" y="260" width="15" height="70" rx="7"/>
    <circle cx="256" cy="222" r="8"/>
    <circle cx="256" cy="290" r="8"/>
    <rect x="292" y="182" width="15" height="70" rx="7"/>
    <rect x="292" y="260" width="15" height="70" rx="7"/>
    <rect x="369" y="182" width="15" height="70" rx="7"/>
    <rect x="369" y="260" width="15" height="70" rx="7"/>
  </g>
  <text x="256" y="390" text-anchor="middle" fill="#8cff35" font-family="Arial,Helvetica,sans-serif" font-size="34" font-weight="700" letter-spacing="10">DAD</text>
  <text x="256" y="417" text-anchor="middle" fill="#76ed35" font-family="Arial,Helvetica,sans-serif" font-size="15" letter-spacing="7">CLOCK</text>
</svg>
